<svg xmlns="http://www.w3.org/2000/svg" xmlns:xlink="http://www.w3.org/1999/xlink" width="500" zoomAndPan="magnify" viewBox="0 0 375 374.999991" height="500" preserveAspectRatio="xMidYMid meet" version="1.0"><defs><clipPath id="6cb6ab157e"><path d="M 39.0625 78 L 336.0625 78 L 336.0625 282 L 39.0625 282 Z M 39.0625 78 " clip-rule="nonzero"/></clipPath></defs><rect x="-37.5" width="450" fill="#ffffff" y="-37.499999" height="449.999989" fill-opacity="1"/><rect x="-37.5" width="450" fill="#ffffff" y="-37.499999" height="449.999989" fill-opacity="1"/><g clip-path="url(#6cb6ab157e)"><path fill="#000000" d="M 187.5625 78.101562 L 39.0625 156.246094 L 187.5625 234.394531 L 273.53125 190.925781 C 273.53125 190.925781 273.53125 230.324219 273.53125 250.019531 C 273.53125 281.28125 304.796875 281.28125 304.796875 281.28125 L 304.796875 265.652344 C 304.796875 265.652344 289.167969 264.757812 289.167969 250.015625 C 289.167969 226.570312 289.167969 182.125 289.167969 182.125 L 336.0625 156.246094 Z M 187.5625 78.101562 " fill-opacity="1" fill-rule="nonzero"/></g><path fill="#000000" d="M 117.21875 218.761719 L 117.21875 250.023438 C 117.21875 257.789062 122.300781 268.191406 132.851562 273.46875 L 187.5625 296.910156 L 234.457031 273.464844 C 245.007812 268.191406 258.640625 257.75 257.90625 250.019531 L 257.90625 218.761719 L 187.5625 252.949219 Z M 117.21875 218.761719 " fill-opacity="1" fill-rule="nonzero"/></svg>